<svg xmlns="http://www.w3.org/2000/svg" xmlns:svg="http://www.w3.org/2000/svg" xmlns:xlink="http://www.w3.org/1999/xlink" id="svg3055" width="744.094" height="1052.362" version="1.1"><defs id="defs3057"><linearGradient id="c" x1="445.301" x2="445.301" y1="541.286" y2="503.72" gradientTransform="translate(-259.29124,-43.736452)" gradientUnits="userSpaceOnUse" xlink:href="#a"/><linearGradient id="a"><stop id="stop12" offset="0" stop-color="#126fc6"/><stop id="stop14" offset="1" stop-color="#4c9cd1"/></linearGradient><linearGradient id="d" x1="351.748" x2="351.748" y1="522.774" y2="503.721" gradientTransform="translate(-167.71124,-43.737452)" gradientUnits="userSpaceOnUse" xlink:href="#b"/><linearGradient id="b"><stop id="stop7" offset="0" stop-color="#2e6c97"/><stop id="stop9" offset="1" stop-color="#3883b7"/></linearGradient><linearGradient id="c-9" x1="445.301" x2="445.301" y1="541.286" y2="503.72" gradientTransform="translate(-246.63155,6.6178184)" gradientUnits="userSpaceOnUse" xlink:href="#a-9"/><linearGradient id="a-9"><stop id="stop12-5" offset="0" stop-color="#126fc6"/><stop id="stop14-7" offset="1" stop-color="#4c9cd1"/></linearGradient><linearGradient id="d-6" x1="351.748" x2="351.748" y1="522.774" y2="503.721" gradientTransform="translate(-155.05155,6.6168184)" gradientUnits="userSpaceOnUse" xlink:href="#b-1"/><linearGradient id="b-1"><stop id="stop7-2" offset="0" stop-color="#2e6c97"/><stop id="stop9-4" offset="1" stop-color="#3883b7"/></linearGradient><linearGradient id="c-4" x1="445.301" x2="445.301" y1="541.286" y2="503.72" gradientTransform="translate(-224.15704,55.407408)" gradientUnits="userSpaceOnUse" xlink:href="#a-6"/><linearGradient id="a-6"><stop id="stop12-2" offset="0" stop-color="#126fc6"/><stop id="stop14-6" offset="1" stop-color="#4c9cd1"/></linearGradient><linearGradient id="d-4" x1="351.748" x2="351.748" y1="522.774" y2="503.721" gradientTransform="translate(-132.57704,55.406408)" gradientUnits="userSpaceOnUse" xlink:href="#b-4"/><linearGradient id="b-4"><stop id="stop7-5" offset="0" stop-color="#2e6c97"/><stop id="stop9-6" offset="1" stop-color="#3883b7"/></linearGradient></defs><metadata id="metadata3060"/><rect style="fill:#fff" id="rect44" width="12.625" height="14.5" x="179.834" y="464.126"/><path style="fill:#917f3e;stroke:#384b40;stroke-width:1.10000002;stroke-linecap:round;fill-opacity:1;stroke-opacity:1" id="path46-3" d="M 186.09876,460.16255 C 179.52576,460.16255 174.05476,465.85355 174.05476,472.02855 174.05476,474.80655 175.61876,478.33655 176.74876,480.77455 L 186.05476,498.64655 195.31676,480.77455 C 196.44676,478.33655 198.05476,474.98355 198.05476,472.02855 198.05476,465.85355 192.67176,460.16255 186.09876,460.16255 z M 186.09876,467.31755 C 188.68276,467.33455 190.77776,469.43955 190.77776,472.02755 190.77776,474.61555 188.68276,476.69055 186.09876,476.70655 183.51476,476.68955 181.41976,474.61655 181.41976,472.02755 181.41976,469.43955 183.51476,467.33455 186.09876,467.31755 z"/><path style="fill:none;stroke:#fff;stroke-width:1.10000002;stroke-linecap:round;stroke-opacity:.122" id="path70" d="M 186.08576,461.26955 C 180.14176,461.26955 175.14776,466.48855 175.14776,472.01955 175.14776,474.37855 176.59076,477.85155 177.71076,480.26955 L 177.74176,480.30055 186.05476,496.26955 194.30476,480.30055 194.33576,480.26955 C 195.47076,477.82155 196.96076,474.56355 196.96076,472.01955 196.96076,466.48155 192.02976,461.26955 186.08576,461.26955 z M 186.08576,466.23855 C 189.25376,466.25955 191.86676,468.83955 191.86676,472.01955 191.86676,475.19955 189.25376,477.78055 186.08576,477.80055 182.91776,477.78055 180.33576,475.19055 180.33576,472.01955 180.33576,468.84755 182.91776,466.25855 186.08576,466.23855 z"/><rect style="fill:#fff" id="rect44-4" width="12.625" height="14.5" x="192.493" y="514.48"/><path style="fill:#953833;stroke:#384b40;stroke-width:1.10000002;stroke-linecap:round;fill-opacity:1;stroke-opacity:1" id="path46-4" d="M 198.75845,510.51682 C 192.18545,510.51682 186.71445,516.20782 186.71445,522.38282 186.71445,525.16082 188.27845,528.69082 189.40845,531.12882 L 198.71445,549.00082 207.97645,531.12882 C 209.10645,528.69082 210.71445,525.33782 210.71445,522.38282 210.71445,516.20782 205.33145,510.51682 198.75845,510.51682 z M 198.75845,517.67182 C 201.34245,517.68882 203.43745,519.79382 203.43745,522.38182 203.43745,524.96982 201.34245,527.04482 198.75845,527.06082 196.17445,527.04382 194.07945,524.97082 194.07945,522.38182 194.07945,519.79382 196.17445,517.68882 198.75845,517.67182 z"/><path style="fill:none;stroke:#fff;stroke-width:1.10000002;stroke-linecap:round;stroke-opacity:.122" id="path70-5" d="M 198.74545,511.62382 C 192.80145,511.62382 187.80745,516.84282 187.80745,522.37382 187.80745,524.73282 189.25045,528.20582 190.37045,530.62382 L 190.40145,530.65482 198.71445,546.62382 206.96445,530.65482 206.99545,530.62382 C 208.13045,528.17582 209.62045,524.91782 209.62045,522.37382 209.62045,516.83582 204.68945,511.62382 198.74545,511.62382 z M 198.74545,516.59282 C 201.91345,516.61382 204.52645,519.19382 204.52645,522.37382 204.52645,525.55382 201.91345,528.13482 198.74545,528.15482 195.57745,528.13482 192.99545,525.54482 192.99545,522.37382 192.99545,519.20182 195.57745,516.61282 198.74545,516.59282 z"/><rect style="fill:#fff" id="rect44-3" width="12.625" height="14.5" x="214.968" y="563.269"/><path style="fill:#4d5b6a;stroke:#384b40;stroke-width:1.10000002;stroke-linecap:round;fill-opacity:1;stroke-opacity:1" id="path46-8" d="M 221.23296,559.30641 C 214.65996,559.30641 209.18896,564.99741 209.18896,571.17241 209.18896,573.95041 210.75296,577.48041 211.88296,579.91841 L 221.18896,597.79041 230.45096,579.91841 C 231.58096,577.48041 233.18896,574.12741 233.18896,571.17241 233.18896,564.99741 227.80596,559.30641 221.23296,559.30641 z M 221.23296,566.46141 C 223.81696,566.47841 225.91196,568.58341 225.91196,571.17141 225.91196,573.75941 223.81696,575.83441 221.23296,575.85041 218.64896,575.83341 216.55396,573.76041 216.55396,571.17141 216.55396,568.58341 218.64896,566.47841 221.23296,566.46141 z"/><path style="fill:none;stroke:#fff;stroke-width:1.10000002;stroke-linecap:round;stroke-opacity:.122" id="path70-0" d="M 221.21996,560.41341 C 215.27596,560.41341 210.28196,565.63241 210.28196,571.16341 210.28196,573.52241 211.72496,576.99541 212.84496,579.41341 L 212.87596,579.44441 221.18896,595.41341 229.43896,579.44441 229.46996,579.41341 C 230.60496,576.96541 232.09496,573.70741 232.09496,571.16341 232.09496,565.62541 227.16396,560.41341 221.21996,560.41341 z M 221.21996,565.38241 C 224.38796,565.40341 227.00096,567.98341 227.00096,571.16341 227.00096,574.34341 224.38796,576.92441 221.21996,576.94441 218.05196,576.92441 215.46996,574.33441 215.46996,571.16341 215.46996,567.99141 218.05196,565.40241 221.21996,565.38241 z"/><text style="font-size:4px;line-height:125%;letter-spacing:0;word-spacing:0;font-family:Sans" id="text48" x="234.338" y="474.846" font-size="4" letter-spacing="0" word-spacing="0"><tspan id="tspan50" x="234.338" y="474.846">Use this one.</tspan> <tspan id="tspan52" x="234.338" y="479.846">Select it and the area around with box select.</tspan> <tspan id="tspan54" x="234.338" y="484.846">should be exactly 25x41 at 90dpi</tspan></text><text style="font-size:40px;line-height:125%;letter-spacing:0;word-spacing:0;font-family:Sans" id="text56" x="234.45" y="498.924" font-size="40" letter-spacing="0" word-spacing="0"><tspan style="font-size:4px" id="tspan58" x="234.45" y="498.924" font-size="4">How to do the inset border:</tspan> <tspan style="font-size:4px" id="tspan60" x="234.45" y="503.924" font-size="4">Delete the existing inset border. Select the background, duplicate.</tspan> <tspan style="font-size:4px" id="tspan62" x="234.45" y="508.924" font-size="4">Path, Dynamic offset.</tspan> <tspan style="font-size:4px" id="tspan64" x="234.45" y="513.924" font-size="4">Fill: None, Stroke Paint: RGBA #ffffff1f</tspan> <tspan style="font-size:4px" id="tspan66" x="234.45" y="518.924" font-size="4">Zoom down to the top and grab the diamond, drag it down and fiddle it untill it looks in line</tspan> <tspan style="font-size:4px" id="tspan68" x="234.45" y="523.924" font-size="4">with the main color layers border.</tspan></text></svg>